Patient4_TMGait_0pt3_03_left_01_EMG.mot
version=1
nRows=40
nColumns=33
inDegrees=no
endheader
time	1LAddLong	2LGlutMax	3LGlutMed	4LIliopsoas	5LSemiMemb	6LBicFemLong	7LRecFem	8LVastMed	9LVastLat	10LGasMed	11LTibAnt	12lTibPost	13LPeroneusLong	14LSol	15LExtDigLong	16LFlexDigLong	17RAddLong	18RGlutMax	19RGlutMed	20RIliopsoas	21RSemiMemb	22RBicFemLong	23RRecFem	24RVastMed	25RVastLat	26RGasMed	27RTibAnt	28RTibPost	29RPeroneusLong	30RSol	31RExtDigLong	32RFlexDigLong
1.525	0.016632	-0.036469	0.028992	0.002289	0.082092	-0.40024	-0.001221	-0.006256	0.061035	-0.076599	0.002594	-0.008545	0.058594	-0.12192	0.075073	-0.015259	0.023346	-0.17288	-0.21988	-0.097961	0.01236	-0.082092	0.010071	-0.054779	0.00824	-0.000153	0.019836	-0.002747	-0.16571	-0.06958	0.00412	-0.008087
1.526	0.014343	-0.074768	-0.058136	0.011597	0.071106	-0.35339	0.047913	-0.005493	0.034332	-0.056305	0.015717	-0.002899	0.029297	-0.16525	0.05127	-0.034943	0.017853	-0.21072	-0.040436	-0.10452	-0.009155	-0.052948	-0.010986	-0.0383	0.021362	0.010681	0.031128	-0.003204	0.10315	-0.14374	0.001373	-0.001831
1.527	0.010834	-0.12253	-0.084076	0.005188	0.02243	-0.27542	0.072937	-0.000916	0.067139	-0.016174	0.001526	-0.004272	0.031586	-0.11047	0.035858	-0.004578	0.026855	-0.21088	-0.005035	-0.085297	-0.008392	-0.018616	0.010986	-0.054321	0.031891	0.020599	0.040588	-0.000763	-0.16769	-0.20737	0.002441	-0.014801
1.528	0.006866	-0.20325	-0.046082	0.004883	-0.002899	-0.21591	0.10391	0.001068	0.066833	-0.002136	0.006409	-0.002594	0.03952	-0.024872	0.023804	-0.75684	0.035706	-0.20126	-0.086212	-0.051117	0.013275	-0.021057	0.008545	-0.032501	0.016785	0.016022	0.050507	-0.002289	-0.54688	-0.15915	-0.000153	-0.001831
1.529	0.004883	-0.24918	-0.064545	0.014191	-0.030823	-0.13992	0.10941	0.00061	0.025177	-0.004425	0.032349	-0.001373	0.035095	-0.029907	0.018768	0.29587	0.031281	-0.1741	-0.085297	0.001984	-0.019684	0.026245	0.021667	-0.042419	0.022278	0.004578	0.013428	-0.000763	-0.69321	0.031891	-0.000153	-0.006866
1.53	-0.006104	-0.37216	-0.005951	0.001526	-0.06012	-0.14175	0.10819	-0.006866	-0.061493	-0.010681	0.038757	-0.004883	0.045013	0.002441	0.063171	0.24368	0.015106	-0.15961	-0.12222	0.11581	0.00473	0.025177	-0.032196	-0.045624	0.029602	-0.012054	-0.041199	-0.001221	0.18143	0.19547	0.002289	-0.014648
1.531	0.002136	-0.39459	-0.012207	0.003357	-0.03891	-0.14496	0.041504	0.007019	0.010986	0.008545	0.029755	0.00061	0.054932	-0.00473	0.11978	0.12711	0.020142	-0.22629	-0.17136	0.090485	0.072632	0.011749	0.037689	-0.087738	0.0354	-0.026855	-0.0177	-0.00473	0.56961	0.21057	-0.000916	-0.010223
1.532	0.021057	-0.31555	-0.046539	-0.020752	0.072327	-0.10834	0.00946	0.010681	0.16007	0.018921	0.000763	0.000763	0.062866	-0.023499	0.079346	0.049133	0.023499	-0.16937	-0.16159	0.053864	0.12695	0.009308	0.053406	-0.092163	0.022736	-0.023956	0.019226	-0.004578	0.22995	0.050812	0.001984	-0.011597
1.533	0.022583	-0.31723	-0.030823	0.010376	0.038452	-0.049744	0.013733	0.009308	0.29511	0.00946	-0.06073	0.005341	0.075684	0.027161	0.005341	0.013275	0.032043	-0.21576	-0.17563	0.046387	0.030823	0.032043	0.042419	-0.087433	0.016479	-0.015106	0.028992	-0.008698	-0.1088	-0.03006	-0.001831	-0.00946
1.534	0.018005	-0.27374	-0.026093	0.000458	0.033264	-0.039215	0.005951	0.011292	0.15732	0.013733	-0.19562	0.011902	0.097351	0.076599	-0.042572	0.00351	0.011597	-0.20294	-0.16937	0.021515	-0.16525	0.095673	0.04425	-0.091858	0.016174	-0.004425	-0.004425	-0.007629	0.036163	-0.036774	0.001678	-0.00885
1.535	0.011444	-0.20706	-0.052338	0.005035	0.037689	0.058136	-0.034943	0.018005	0.03479	0.005188	-0.16983	0.007172	0.065765	0.10483	-0.038147	0.005646	0.010071	-0.18036	-0.15869	0.013428	-0.037079	0.083923	0.054474	-0.035706	0.033417	-0.006409	-0.014191	-0.008392	0.3688	-0.04715	0.000458	0.001984
1.536	-0.004425	-0.19241	-0.060883	0.020447	0.00351	0.079193	-0.10193	0.014648	0.073242	0.017548	-0.025787	0.002441	0.090332	0.077209	0.031891	-0.037994	0.010529	-0.15121	-0.10559	-0.017395	-0.22675	0.14557	0.039063	-0.036774	0.030823	-0.006409	-0.037537	0.00412	0.16434	-0.1355	0.001526	-0.015106
1.537	-0.000153	-0.16464	-0.079651	0.01709	-0.028534	0.069885	-0.090179	0.095673	0.22095	0.060577	0.075226	-0.001221	0.099182	0.077362	-0.056458	-0.0354	-0.017548	-0.17517	-0.091858	0.006104	-0.11154	0.14618	0.04837	-0.013275	0.042877	-0.003204	-0.028381	0.002747	0.38437	-0.062256	0.009918	-0.011139
1.538	-0.014801	-0.11459	-0.060883	-0.001984	-0.080261	0.08728	-0.005646	0.038147	0.15823	0.078735	0.15671	-0.001984	0.06897	0.023346	-0.12604	-0.0354	-0.03952	-0.17868	-0.080719	0.079498	0.11581	0.052795	0.044556	-0.028534	0.028992	-0.001831	-0.035553	0.006256	0.75592	0.071869	0.001831	-0.010376
1.539	-0.025024	-0.055084	-0.049286	0.010223	-0.12802	0.065155	0.10864	-0.001831	0.000763	0.076752	0.13733	0.003967	0.057678	-0.013885	-0.093689	-0.035095	-0.028534	-0.15167	0.023193	0.040894	0.23956	0.010986	0.066528	-0.010223	0.0354	-0.00885	-0.03479	-0.002594	0.30456	0.058899	-0.001831	-0.014648
1.54	-0.000305	-0.031281	-0.063934	0.017242	-0.10071	0.049744	0.12116	-0.016174	-0.37766	0.058136	0.058899	0.001526	0.079498	-0.034637	-0.059204	-0.033264	-0.017395	-0.067902	0.07843	-0.010986	0.065155	-0.041656	0.09552	0.030212	0.019226	-0.010681	-0.002747	-0.001068	-0.13443	-0.074921	0.001068	-0.014191
1.541	0.010376	-0.01358	-0.082855	0.0177	-0.08606	0.0383	0.11643	-0.011902	-0.42694	-0.11078	-0.038452	0.000763	0.063324	-0.11749	0.060883	-0.024872	0.00351	-0.12787	-0.032196	-0.044861	-0.18524	-0.069122	0.082397	-0.04303	0.023651	-0.014801	-0.004272	-0.012665	0.17197	-0.22278	0.000305	-0.014648
1.542	0.002747	0.001831	-0.10361	-0.00824	-0.006714	0.22186	0.092316	-0.012817	-0.31723	-0.15793	-0.12314	0.006256	0.040588	-0.058594	0.024414	-0.021362	0.003357	-0.19287	-0.2832	-0.0383	-0.28625	-0.069275	0.030365	-0.016785	0.042725	-0.006409	-0.02121	-0.016022	0.30197	-0.21027	-0.000153	-0.007782
1.543	0.006714	0.033417	-0.14053	-0.005188	0.002441	0.30182	0.081482	-0.021973	-0.15839	-0.049438	0.026398	-0.001373	0.020142	-0.026093	-0.098572	-0.034637	-0.014343	-0.11795	-0.41534	-0.024414	0.22201	-0.027771	0.06134	0.020599	0.032349	-0.000305	0.00473	0.003967	0.082397	-0.17914	0.002289	-0.011292
1.544	0.020294	0.022736	-0.093689	0.000458	0.027161	0.20218	0.07431	-0.016937	-0.1001	0.03952	0.062714	0.012512	0.02594	-0.042877	-0.084534	-0.028381	0.001221	-0.09613	-0.06012	-0.028076	0.2385	-0.014648	0.058289	-0.060577	0.037384	0.001221	0.017395	0	-0.091553	-0.11414	0.002594	-0.011444
1.545	0.00061	0.045319	0.031433	0.00351	-0.002136	0.16068	0.10376	-0.04425	-0.072021	0.074768	-0.00885	0.006866	0.033722	-0.068665	-0.062408	-0.030212	0.006409	-0.11932	0.3125	-0.045319	0.028992	-0.025635	0.093994	-0.077515	0.030518	0.006714	0.019989	-0.002289	0.091095	-0.12131	-0.000458	-0.010376
1.546	-0.007629	0.077667	0.014801	0.016937	-0.069885	-0.005341	0.10391	-0.008392	-0.051575	0.058136	-0.040436	0.008392	0.040283	-0.043335	-0.076447	-0.012665	0.022888	-0.10956	0.1152	-0.038452	0.024109	-0.007019	0.10361	-0.05722	0.034027	0.004883	0.013123	0.000458	0.3067	-0.22003	0	-0.0177
1.547	0.008087	0.10559	0.038452	0.025635	-0.14435	0.028992	0.071869	-0.008545	-0.014648	0.003204	-0.0354	-0.000153	0.021973	-0.084839	-0.066986	-0.012512	0.013733	-0.084381	-0.29739	0.013123	0.047302	0.023651	0.11353	-0.059357	0.035858	-0.005951	0.035706	-0.006866	0.34454	-0.27313	0.001221	-0.006409
1.548	0.022278	0.10574	-0.00473	0.022278	-0.12238	0.16022	0.042267	-0.009155	-0.003357	0.002594	-0.02655	0.005951	-0.049286	-0.080414	-0.025024	-0.023193	-0.002747	-0.071106	-0.22263	0.060883	0.026703	0.023346	0.091705	-0.022736	0.027924	-0.001068	-0.017548	-0.00946	0.29572	-0.32776	0.003204	-0.00061
1.549	0.038452	0.075073	0.028229	-0.002136	0.008545	-0.23361	0.054321	0.000763	-0.007629	-0.027618	-0.018158	0.003967	-0.032959	-0.099945	0.01709	0.000153	0.004272	-0.079041	-0.16647	0.07431	-0.029907	0.031128	0.12192	-0.052643	0.018005	0.001678	-0.002899	0.001373	0.37811	-0.49957	0.00061	-0.013885
1.55	0.041351	-0.00473	0.076447	-0.02533	0.058746	-0.51392	0.075836	-0.005951	-0.013275	-0.083008	-0.013428	0.000153	0.027924	-0.086365	0.050812	0.015106	0.007477	-0.08667	0.095062	-0.006866	-0.01709	0.023346	0.12543	-0.053101	0.033112	0.003815	0.016632	-0.004883	0.26688	-0.56641	0.004425	-0.023804
1.551	0.016174	-0.032806	0.066223	-0.017853	0.080109	-0.22537	0.11917	0.005493	-0.007782	-0.10071	0.008087	0.000763	0.070953	-0.068054	0.062561	0.017395	-0.003967	-0.1442	0.08255	-0.1503	0.005341	0.021057	0.1268	-0.062256	0.036926	0.007477	0.009003	-0.011444	-0.015411	-0.30029	0.003967	-0.016785
1.552	0.00061	-0.016785	0.090179	0.003357	0.066986	-0.035553	0.14557	0.013428	0.016174	-0.048523	0.009766	0.008545	0.063477	-0.038452	0.051727	-0.007477	0.011749	-0.17334	-0.067444	-0.12573	0.016327	-0.044708	0.077667	-0.037384	0.040588	0.010681	0.024872	-0.009308	-0.56915	-0.21591	0.000458	-0.016174
1.553	-0.00412	0.003967	0.10819	-0.009308	0.036621	-0.023041	0.14297	0.013123	0.04776	-0.089264	0.002441	0.017242	0.077362	-0.03067	0.027161	-0.023804	0.003662	-0.15274	-0.1622	-0.050049	0.017395	-0.10696	0.1152	-0.016937	0.032806	0.025635	0.034637	-0.000763	-0.9932	-0.066376	-0.000458	-0.020599
1.554	0.001373	0.072632	0.085907	-0.00412	-0.039368	-0.024872	0.12222	0.017395	0.054932	0.10956	0.008392	0.013733	0.060577	-0.063629	0.031891	-0.005188	0.002747	-0.10819	-0.20416	0.071564	0.001373	-0.065308	0.075989	-0.031586	0.0383	-0.00412	-0.002441	0.029297	-0.14282	0.23911	0.000763	-0.02243
1.555	0.027771	0.15121	0.058289	-0.001678	-0.034027	-0.13565	0.022888	0.016327	-0.063324	0.17792	0.004425	0.016479	0.040588	-0.041351	0.041809	-0.00351	0.008698	-0.078888	-0.21286	0.12665	-0.007019	-0.040588	0.11749	-0.036316	0.024261	-0.019226	0.028076	0.013733	0.12268	0.1944	0.003052	-0.0177
1.556	0.042419	0.22492	0.068817	0.002899	-0.024109	-0.20172	-0.087433	0.021973	-0.17258	0.10407	0.003967	0.010376	0.008087	-0.014038	0.058289	-0.007019	0.0177	-0.040436	-0.18875	0.085449	-0.032196	-0.006409	0.13123	-0.066986	0.041046	-0.019684	0.050964	-0.26016	-0.27344	-0.023651	0	-0.006561
1.557	0.035858	0.23209	0.079803	0.003357	-0.027161	-0.14648	-0.018463	0.02243	-0.17303	-0.005493	-0.001068	0.011902	-0.021362	0.016937	0.046234	-0.013428	0.013733	-0.10269	-0.17609	0.058746	-0.047607	-0.036621	0.12054	-0.036163	0.025482	-0.019684	-0.001221	-0.43243	-0.29037	-0.068665	-0.00473	0.001831
1.558	0.019836	0.31174	0.027313	0.006866	0.001068	-0.042267	0.018921	0.020905	-0.065308	-0.063934	-0.007324	0.003967	0.01358	0.027924	-0.005341	-0.009308	0.008698	-0.11444	-0.083313	0.024872	-0.053864	-0.039825	0.12268	-0.050354	0.034027	-0.011597	-0.023804	0.20218	-1.0603	0.14389	-0.000458	-0.009003
1.559	-0.001526	0.35629	0.04776	-0.007019	0.044708	0.029449	0.045013	0.009766	0.10513	-0.054779	-0.064087	0.007935	0.018463	0.03952	-0.003357	-0.002289	0.006866	-0.077667	-0.045013	0.061035	-0.071716	-0.039978	0.12772	-0.033264	0.047455	-0.001373	-0.066376	0.58563	-0.64499	0.67719	-0.004425	-0.003967
1.56	-0.01358	0.36713	0.10712	-0.00061	-0.040436	0.15549	0.056458	-0.007782	0.1947	-0.023041	-0.072327	0.002441	0.028076	0.03418	0.000458	-0.002747	0.014648	-0.10056	-0.08728	0.093536	-0.086975	-0.021973	0.11856	-0.061646	0.0354	0.002289	-0.043488	0.21423	-0.29373	0.25436	0.004578	-0.020447
1.561	-0.02594	0.29373	0.033875	0.00061	-0.11795	0.27802	0.1152	-0.024872	0.21072	-0.009766	-0.036774	0.007782	0.04425	-0.040894	-0.035706	0.002136	0.018921	-0.094757	-0.13947	0.090485	-0.0737	0.036011	0.14801	-0.006409	0.053711	-0.003204	-0.064392	0.046539	0.022278	-0.40909	0.000916	-0.011902
1.562	-0.003204	0.27908	-0.030365	0.008698	-0.071106	0.33707	0.086975	-0.028839	0.12329	-0.006714	0.018921	0.006561	0.03952	-0.022278	-0.049744	0.004425	0.00824	-0.13382	-0.08255	0.031281	-0.056	0.03006	0.11078	-0.041809	0.042877	-0.018768	-0.057678	-0.006104	-0.090027	-0.76874	-0.000458	-0.013733
1.563	0.025482	0.28763	-0.05661	-0.002899	0.074463	0.21133	0.076447	-0.021973	0.072327	-0.001678	0.061493	0.005188	0.047607	-0.011749	-0.026245	0.023804	-0.005798	-0.093994	-0.10666	-0.070496	-0.027618	-0.021667	0.12894	-0.012054	0.056	-0.027313	0	-0.091705	-0.024872	-0.4509	0.011139	-0.010834
1.564	0.017242	0.27603	-0.14816	0.009766	0.083008	0.13092	0.091705	-0.016479	0.058899	0.010681	0.10819	0.001373	0.03891	0.044861	0.006714	-0.000916	0.019379	-0.16022	-0.17319	-0.26504	-0.037537	-0.018005	0.11063	-0.030975	0.056763	-0.02182	-0.039825	-0.035706	0.11704	0.25299	0.002747	-0.001373
